<?xml version="1.0" ?><svg viewBox="0 0 24 24" xmlns="http://www.w3.org/2000/svg"><title/><g data-name="Power Point" id="Power_Point"><g data-name="&lt;Group&gt;" id="_Group_"><polygon data-name="&lt;Path&gt;" id="_Path_" points="13.5 0.5 0.5 3 0.5 21 13.5 23.5 13.5 0.5" style="fill:none;stroke:#b7472a;stroke-linecap:round;stroke-linejoin:round"/><polyline data-name="&lt;Path&gt;" id="_Path_2" points="13.5 3.5 23.5 3.5 23.5 20.5 13.5 20.5" style="fill:none;stroke:#b7472a;stroke-linecap:round;stroke-linejoin:round"/><line data-name="&lt;Path&gt;" id="_Path_3" style="fill:none;stroke:#b7472a;stroke-linecap:round;stroke-linejoin:round" x1="13.5" x2="21.5" y1="15" y2="15"/><line data-name="&lt;Path&gt;" id="_Path_4" style="fill:none;stroke:#b7472a;stroke-linecap:round;stroke-linejoin:round" x1="13.5" x2="21.5" y1="18" y2="18"/><path d="M19.5,8.5v1a3,3,0,1,1-3-3h1" data-name="&lt;Path&gt;" id="_Path_5" style="fill:none;stroke:#b7472a;stroke-linecap:round;stroke-linejoin:round"/><path d="M20.5,8.5a3,3,0,0,0-3-3v3Z" data-name="&lt;Path&gt;" id="_Path_6" style="fill:none;stroke:#b7472a;stroke-linecap:round;stroke-linejoin:round"/><path d="M5.5,15.5v-7h1a2,2,0,0,1,2,2h0a2,2,0,0,1-2,2h-1" data-name="&lt;Path&gt;" id="_Path_7" style="fill:none;stroke:#b7472a;stroke-linecap:round;stroke-linejoin:round"/></g></g></svg>