<svg xmlns="http://www.w3.org/2000/svg" width="104" height="104" viewBox="0 0 26 26" style="fill: rgb(43, 87, 154);">
    <path d="M 15 0 L 0 2.875 L 0 23.125 L 15 26 L 15 0 z M 16 3 L 16 5.96875 L 23.03125 5.96875 L 23.03125 8 L 16 8 L 16 10 L 23 10 L 23 12 L 16 12 L 16 14 L 23 14 L 23 16 L 16 16 L 16 18 L 23 18 L 23 20 L 16 20 L 16 23 L 25.15625 23 C 25.61725 23 26 22.604 26 22.125 L 26 3.875 C 26 3.396 25.61725 3 25.15625 3 L 16 3 z M 1.96875 7.9375 L 3.875 7.9375 L 5 14.6875 C 5.047 14.9745 5.07175 15.35975 5.09375 15.84375 L 5.125 15.84375 C 5.139 15.48175 5.19025 15.08425 5.28125 14.65625 L 6.71875 7.9375 L 8.59375 7.9375 L 9.90625 14.75 C 9.95325 15 9.99425 15.3355 10.03125 15.8125 C 10.04625 15.4405 10.09325 15.0685 10.15625 14.6875 L 11.25 7.9375 L 13.03125 7.9375 L 10.9375 18.0625 L 9 18.0625 L 7.6875 11.5625 C 7.6185 11.2235 7.5765 10.8565 7.5625 10.4375 L 7.53125 10.4375 C 7.49825 10.8985 7.46825 11.2655 7.40625 11.5625 L 6.0625 18.0625 L 4.03125 18.0625 L 1.96875 7.9375 z"/>
</svg>